<mxfile host="app.diagrams.net" modified="2024-05-07T07:17:02.623Z" agent="Mozilla/5.0 (Windows NT 10.0; Win64; x64) AppleWebKit/537.36 (KHTML, like Gecko) Chrome/124.0.0.0 Safari/537.36" etag="MCnh-oJDs6mfj7m5S0U_" version="24.3.1" type="github">
  <diagram name="第 1 页" id="vTX5wK9Gj_gGrEb3DV-r">
    <mxGraphModel dx="1434" dy="746" grid="1" gridSize="10" guides="1" tooltips="1" connect="1" arrows="1" fold="1" page="1" pageScale="1" pageWidth="3300" pageHeight="4681" math="0" shadow="0">
      <root>
        <mxCell id="0" />
        <mxCell id="1" parent="0" />
        <mxCell id="fTLe9w5As901FmEwYzMM-35" style="rounded=0;orthogonalLoop=1;jettySize=auto;html=1;exitX=0.5;exitY=1;exitDx=0;exitDy=0;entryX=0.5;entryY=0;entryDx=0;entryDy=0;" edge="1" parent="1" source="fTLe9w5As901FmEwYzMM-3" target="fTLe9w5As901FmEwYzMM-28">
          <mxGeometry relative="1" as="geometry" />
        </mxCell>
        <mxCell id="fTLe9w5As901FmEwYzMM-3" value="1825" style="whiteSpace=wrap;html=1;" vertex="1" parent="1">
          <mxGeometry x="50" y="390" width="120" height="60" as="geometry" />
        </mxCell>
        <mxCell id="fTLe9w5As901FmEwYzMM-4" value="工业化" style="whiteSpace=wrap;html=1;" vertex="1" parent="1">
          <mxGeometry x="50" y="610" width="120" height="60" as="geometry" />
        </mxCell>
        <mxCell id="fTLe9w5As901FmEwYzMM-5" value="&lt;b&gt;蒸汽机&lt;/b&gt;&lt;div&gt;纺织&lt;/div&gt;" style="whiteSpace=wrap;html=1;" vertex="1" parent="1">
          <mxGeometry x="50" y="690" width="120" height="60" as="geometry" />
        </mxCell>
        <mxCell id="fTLe9w5As901FmEwYzMM-37" style="rounded=0;orthogonalLoop=1;jettySize=auto;html=1;exitX=0.5;exitY=1;exitDx=0;exitDy=0;entryX=0.5;entryY=0;entryDx=0;entryDy=0;" edge="1" parent="1" source="fTLe9w5As901FmEwYzMM-9" target="fTLe9w5As901FmEwYzMM-29">
          <mxGeometry relative="1" as="geometry" />
        </mxCell>
        <mxCell id="fTLe9w5As901FmEwYzMM-9" value="1873" style="whiteSpace=wrap;html=1;" vertex="1" parent="1">
          <mxGeometry x="220" y="390" width="120" height="60" as="geometry" />
        </mxCell>
        <mxCell id="fTLe9w5As901FmEwYzMM-11" value="运输革命" style="whiteSpace=wrap;html=1;" vertex="1" parent="1">
          <mxGeometry x="220" y="610" width="120" height="60" as="geometry" />
        </mxCell>
        <mxCell id="fTLe9w5As901FmEwYzMM-12" value="&lt;b&gt;铁路&lt;/b&gt; 钢铁&lt;div&gt;蒸汽船 电报&lt;/div&gt;" style="whiteSpace=wrap;html=1;" vertex="1" parent="1">
          <mxGeometry x="220" y="690" width="120" height="60" as="geometry" />
        </mxCell>
        <mxCell id="fTLe9w5As901FmEwYzMM-39" style="rounded=0;orthogonalLoop=1;jettySize=auto;html=1;exitX=0.5;exitY=1;exitDx=0;exitDy=0;entryX=0.5;entryY=0;entryDx=0;entryDy=0;" edge="1" parent="1" source="fTLe9w5As901FmEwYzMM-14" target="fTLe9w5As901FmEwYzMM-30">
          <mxGeometry relative="1" as="geometry" />
        </mxCell>
        <mxCell id="fTLe9w5As901FmEwYzMM-14" value="1913" style="whiteSpace=wrap;html=1;" vertex="1" parent="1">
          <mxGeometry x="390" y="390" width="120" height="60" as="geometry" />
        </mxCell>
        <mxCell id="fTLe9w5As901FmEwYzMM-16" value="全球化" style="whiteSpace=wrap;html=1;" vertex="1" parent="1">
          <mxGeometry x="470" y="610" width="120" height="60" as="geometry" />
        </mxCell>
        <mxCell id="fTLe9w5As901FmEwYzMM-17" value="电力&lt;div&gt;&lt;b&gt;石油&lt;/b&gt;、重工业&lt;/div&gt;" style="whiteSpace=wrap;html=1;" vertex="1" parent="1">
          <mxGeometry x="390" y="690" width="120" height="60" as="geometry" />
        </mxCell>
        <mxCell id="fTLe9w5As901FmEwYzMM-41" style="rounded=0;orthogonalLoop=1;jettySize=auto;html=1;exitX=0.5;exitY=1;exitDx=0;exitDy=0;entryX=0.5;entryY=0;entryDx=0;entryDy=0;" edge="1" parent="1" source="fTLe9w5As901FmEwYzMM-19" target="fTLe9w5As901FmEwYzMM-32">
          <mxGeometry relative="1" as="geometry" />
        </mxCell>
        <mxCell id="fTLe9w5As901FmEwYzMM-19" value="1956" style="whiteSpace=wrap;html=1;" vertex="1" parent="1">
          <mxGeometry x="560" y="390" width="120" height="60" as="geometry" />
        </mxCell>
        <mxCell id="fTLe9w5As901FmEwYzMM-21" value="信息化" style="whiteSpace=wrap;html=1;" vertex="1" parent="1">
          <mxGeometry x="720" y="610" width="120" height="60" as="geometry" />
        </mxCell>
        <mxCell id="fTLe9w5As901FmEwYzMM-22" value="&lt;b&gt;汽车&lt;/b&gt; 航空&lt;div&gt;大众传媒&lt;/div&gt;" style="whiteSpace=wrap;html=1;" vertex="1" parent="1">
          <mxGeometry x="560" y="690" width="120" height="60" as="geometry" />
        </mxCell>
        <mxCell id="fTLe9w5As901FmEwYzMM-43" style="rounded=0;orthogonalLoop=1;jettySize=auto;html=1;exitX=0.5;exitY=1;exitDx=0;exitDy=0;entryX=0.5;entryY=0;entryDx=0;entryDy=0;" edge="1" parent="1" source="fTLe9w5As901FmEwYzMM-24" target="fTLe9w5As901FmEwYzMM-33">
          <mxGeometry relative="1" as="geometry" />
        </mxCell>
        <mxCell id="fTLe9w5As901FmEwYzMM-24" value="2000" style="whiteSpace=wrap;html=1;" vertex="1" parent="1">
          <mxGeometry x="720" y="390" width="120" height="60" as="geometry" />
        </mxCell>
        <mxCell id="fTLe9w5As901FmEwYzMM-27" value="通讯&lt;div&gt;&lt;b&gt;互联网&lt;/b&gt;&lt;/div&gt;" style="whiteSpace=wrap;html=1;" vertex="1" parent="1">
          <mxGeometry x="720" y="690" width="120" height="60" as="geometry" />
        </mxCell>
        <mxCell id="fTLe9w5As901FmEwYzMM-36" style="rounded=0;orthogonalLoop=1;jettySize=auto;html=1;exitX=0.5;exitY=0;exitDx=0;exitDy=0;entryX=0.5;entryY=1;entryDx=0;entryDy=0;" edge="1" parent="1" source="fTLe9w5As901FmEwYzMM-28" target="fTLe9w5As901FmEwYzMM-9">
          <mxGeometry relative="1" as="geometry" />
        </mxCell>
        <mxCell id="fTLe9w5As901FmEwYzMM-28" value="1847" style="whiteSpace=wrap;html=1;" vertex="1" parent="1">
          <mxGeometry x="140" y="500" width="120" height="60" as="geometry" />
        </mxCell>
        <mxCell id="fTLe9w5As901FmEwYzMM-38" style="rounded=0;orthogonalLoop=1;jettySize=auto;html=1;exitX=0.5;exitY=0;exitDx=0;exitDy=0;entryX=0.5;entryY=1;entryDx=0;entryDy=0;" edge="1" parent="1" source="fTLe9w5As901FmEwYzMM-29" target="fTLe9w5As901FmEwYzMM-14">
          <mxGeometry relative="1" as="geometry" />
        </mxCell>
        <mxCell id="fTLe9w5As901FmEwYzMM-29" value="1893" style="whiteSpace=wrap;html=1;" vertex="1" parent="1">
          <mxGeometry x="310" y="500" width="120" height="60" as="geometry" />
        </mxCell>
        <mxCell id="fTLe9w5As901FmEwYzMM-40" style="rounded=0;orthogonalLoop=1;jettySize=auto;html=1;exitX=0.5;exitY=0;exitDx=0;exitDy=0;entryX=0.5;entryY=1;entryDx=0;entryDy=0;" edge="1" parent="1" source="fTLe9w5As901FmEwYzMM-30" target="fTLe9w5As901FmEwYzMM-19">
          <mxGeometry relative="1" as="geometry" />
        </mxCell>
        <mxCell id="fTLe9w5As901FmEwYzMM-30" value="1939" style="whiteSpace=wrap;html=1;" vertex="1" parent="1">
          <mxGeometry x="480" y="500" width="120" height="60" as="geometry" />
        </mxCell>
        <mxCell id="fTLe9w5As901FmEwYzMM-42" style="rounded=0;orthogonalLoop=1;jettySize=auto;html=1;exitX=0.5;exitY=0;exitDx=0;exitDy=0;entryX=0.5;entryY=1;entryDx=0;entryDy=0;" edge="1" parent="1" source="fTLe9w5As901FmEwYzMM-32" target="fTLe9w5As901FmEwYzMM-24">
          <mxGeometry relative="1" as="geometry" />
        </mxCell>
        <mxCell id="fTLe9w5As901FmEwYzMM-32" value="1989" style="whiteSpace=wrap;html=1;" vertex="1" parent="1">
          <mxGeometry x="650" y="500" width="120" height="60" as="geometry" />
        </mxCell>
        <mxCell id="fTLe9w5As901FmEwYzMM-33" value="2020" style="whiteSpace=wrap;html=1;" vertex="1" parent="1">
          <mxGeometry x="830" y="500" width="120" height="60" as="geometry" />
        </mxCell>
        <mxCell id="fTLe9w5As901FmEwYzMM-34" value="人工智能、生物" style="whiteSpace=wrap;html=1;" vertex="1" parent="1">
          <mxGeometry x="880" y="690" width="120" height="60" as="geometry" />
        </mxCell>
        <mxCell id="fTLe9w5As901FmEwYzMM-45" style="rounded=0;orthogonalLoop=1;jettySize=auto;html=1;exitX=0.25;exitY=0;exitDx=0;exitDy=0;entryX=0.5;entryY=1;entryDx=0;entryDy=0;" edge="1" parent="1" source="fTLe9w5As901FmEwYzMM-44" target="fTLe9w5As901FmEwYzMM-3">
          <mxGeometry relative="1" as="geometry" />
        </mxCell>
        <mxCell id="fTLe9w5As901FmEwYzMM-44" value="1793" style="whiteSpace=wrap;html=1;" vertex="1" parent="1">
          <mxGeometry y="500" width="60" height="60" as="geometry" />
        </mxCell>
        <mxCell id="fTLe9w5As901FmEwYzMM-46" value="1.下降期农业衰退时间长&lt;div&gt;2.下降段最低点新老技术交替，新技术大量出现&lt;/div&gt;&lt;div&gt;3.上升段（黄金）资本供应量大幅增加&lt;/div&gt;&lt;div&gt;4.上升段通常会发生战争&lt;/div&gt;&lt;div&gt;&lt;br&gt;&lt;/div&gt;" style="whiteSpace=wrap;html=1;align=left;verticalAlign=top;" vertex="1" parent="1">
          <mxGeometry x="40" y="40" width="260" height="80" as="geometry" />
        </mxCell>
      </root>
    </mxGraphModel>
  </diagram>
</mxfile>
